<?xml version="1.0" encoding="utf-8"?>
<!-- Generator: Adobe Illustrator 23.0.5, SVG Export Plug-In . SVG Version: 6.00 Build 0)  -->
<svg version="1.1" id="Capa_1" xmlns="http://www.w3.org/2000/svg" xmlns:xlink="http://www.w3.org/1999/xlink" x="0px" y="0px"
	 viewBox="0 0 657.9 195.2" style="enable-background:new 0 0 657.9 195.2;" xml:space="preserve">
<style type="text/css">
	.st0{fill:#FFFFFF;}
	.st1{fill:#64AFFF;}
</style>
<path class="st0" d="M237.8,4.2L237.8,4.2c-5.2-4.2-13.7-4.1-18.7,0.2c-2.6,2.3-3.9,5.2-3.7,8.2c-1.1,122.6-0.8,123.9-0.7,124.6
	c0.6,2.6,2.3,4.8,4.9,6.4c2.4,1.5,5.1,2.2,8,2.2c1.4,0,2.6-0.1,3.5-0.3c2.9-0.6,9.7-3,9.7-12.4L242,12.3l0-0.5
	C241.7,8.9,240.2,6.2,237.8,4.2 M145.2,66.6l-0.4-0.1c-6.3-1.6-13.4-2.9-21.2-3.7c-7.5-0.8-18.1-1.5-31.8-2.3l-1.5,0
	c-12.2-0.5-21.7-1-28.2-1.7c-6.2-0.6-11.6-1.6-16.3-2.9c-4.8-1.2-8.2-2.8-10.1-4.6c-1.7-1.6-2.4-3.6-2.4-6.5
	c-0.1-5.9,3.2-10.5,10.4-14.6c8-4.5,19.4-7.1,33.9-7.8c0.6-0.1,2.2-0.2,5.8-0.2c13.2,0,25.5,1.9,36.6,5.7c10.6,3.6,18,8.2,22.3,13.8
	l0.3,0.3c4.1,4.5,10.7,6.1,17.4,3.2l0.4-0.2c4.1-2.1,6.3-5.5,6.3-9.5c0-2.4-0.8-4.5-2.2-6.1c-6.9-9.1-18-16.4-32.8-21.7
	C117.2,2.6,101,0,83.7,0c-3.3,0-5.9,0.1-7.3,0.2C63.1,0.7,51.2,2.7,41,6.3C30.4,10,22.1,15.1,16.1,21.6C10,28.3,6.8,36,6.8,44.6
	c0,8.1,2.7,15,8,20.6c5.1,5.3,12.9,9.5,23.2,12.5c6,1.5,12.6,2.6,19.7,3.3c6.7,0.7,17.3,1.4,31.7,2.1l1.6,0
	c12.9,0.7,22.7,1.4,29.1,2.1c6.2,0.7,11.7,1.7,16.2,2.9c5,1.5,8.6,3.4,10.6,5.5c1.8,1.9,2.7,4.4,2.7,7.8c0,4.2-1.9,7.8-5.9,11.3
	c-4.5,3.8-11,6.8-19.5,9c-8.9,2.3-19.5,3.4-31.5,3.4c-11.5,0-22.3-1-32.3-3.1c-9.8-2-18-4.7-24.3-8.1c-5.6-3-9.1-6.1-10.5-9.6
	c-1.1-2.3-2.8-4.1-5.1-5.4C18.3,97.6,15.8,97,13,97c-1.6,0-2.8,0.1-4.3,0.6c-2.6,0.9-4.7,2.3-6.2,4.2c-1.6,2-2.4,4.2-2.4,6.6
	c0,1.4,0.2,2.4,0.6,3.5c3.1,7.4,9.3,14,18.6,19.5c8.8,5.2,19.7,9.3,32.6,12.2c12.6,2.8,26.4,4.2,41,4.2c16.3,0,30.7-1.8,42.9-5.4
	c12.7-3.7,22.6-9.1,29.6-16c7.3-7.2,10.9-15.7,10.9-25.3C176.2,84.8,165.8,73.2,145.2,66.6 M656.2,129c-2.5-3.9-18-27.3-34.6-52.3
	c-20.2-30.5-43.2-65-46.2-69.9c-2.3-4-6.6-6.3-11.7-6.3c-4.9,0-9,1.9-11.7,5.7l-80.9,122.2c-1.3,1.9-2,3.9-2,6
	c0,3.9,2.3,7.2,6.4,9.4c4.1,2.2,9.2,2.3,13.5,0.2c1.1-0.6,2.2-1.2,3.1-2l71.2-106.8l69.7,105l0.3,0.4c1.3,1.5,3,2.8,5,3.7
	c2.1,1,4.3,1.5,6.5,1.5c2.3,0,4.4-0.5,6.6-1.6c4.1-2.2,6.4-5.6,6.4-9.6C657.9,132.6,657.3,130.7,656.2,129 M425.1,66.6l-0.4-0.1
	c-6.3-1.6-13.4-2.9-21.2-3.7c-7.5-0.8-18.1-1.5-31.8-2.3l-1.5,0c-12.2-0.5-21.7-1-28.2-1.7c-6.2-0.6-11.6-1.6-16.3-2.9
	c-4.8-1.2-8.2-2.8-10.1-4.7c-1.7-1.6-2.4-3.6-2.4-6.5c-0.1-5.9,3.2-10.5,10.4-14.6c8-4.5,19.4-7.1,33.9-7.8c0.6-0.1,2.2-0.2,5.8-0.2
	c13.2,0,25.5,1.9,36.6,5.7c10.5,3.6,18,8.2,22.3,13.8l0.3,0.3c4.1,4.5,10.7,6.1,17.4,3.2l0.4-0.2c4.1-2.1,6.3-5.5,6.3-9.5
	c0-2.4-0.8-4.5-2.2-6.1c-6.9-9.1-18-16.4-32.8-21.7c-14.5-5.2-30.7-7.8-48-7.8c-3.3,0-5.9,0.1-7.3,0.2c-13.3,0.5-25.2,2.6-35.3,6.1
	C310.3,10,302,15.1,296,21.6c-6.2,6.7-9.3,14.4-9.3,23c0,8.1,2.7,15,8,20.6c5.1,5.3,12.9,9.5,23.2,12.5c6,1.5,12.6,2.6,19.7,3.3
	c6.7,0.7,17.3,1.4,31.7,2.1l1.6,0c12.9,0.7,22.7,1.4,29.1,2.1c6.2,0.7,11.7,1.7,16.2,2.9c5,1.5,8.6,3.4,10.6,5.5
	c1.8,1.9,2.7,4.4,2.7,7.8c0,4.2-1.9,7.8-5.9,11.3c-4.5,3.8-11,6.8-19.5,9c-8.9,2.3-19.5,3.4-31.5,3.4c-11.5,0-22.3-1-32.3-3.1
	c-9.8-2-18-4.7-24.3-8.1c-5.6-3-9.1-6.1-10.5-9.6c-1.1-2.3-2.8-4.1-5.1-5.4c-2.2-1.3-4.8-1.9-7.6-1.9c-1.6,0-2.8,0.1-4.3,0.6
	c-2.6,0.9-4.7,2.3-6.2,4.2c-1.6,2-2.4,4.2-2.4,6.6c0,1.4,0.2,2.4,0.6,3.5c3.1,7.4,9.3,14,18.6,19.5c8.8,5.2,19.7,9.3,32.6,12.2
	c12.6,2.8,26.4,4.2,41,4.2c16.3,0,30.7-1.8,42.9-5.4c12.7-3.7,22.6-9.1,29.6-16c7.3-7.2,10.9-15.7,10.9-25.3
	C456.1,84.8,445.7,73.2,425.1,66.6"/>
<path class="st1" d="M588.2,100.6c-6.9,6.6-15.9,10.3-25.2,10.3c-9.3,0-17.9-3.6-24.2-10.2c-3.9-4.1-10.4-4.2-14.5-0.3
	c-4.1,3.9-4.2,10.4-0.3,14.5c10.7,11.1,25.8,17.1,41.5,16.4c13.8-0.6,26.9-6.3,37-15.9c4.1-3.9,4.2-10.4,0.3-14.5
	C598.8,96.8,592.2,96.7,588.2,100.6"/>
<path class="st0" d="M352.7,183.9l-0.6-0.1c-3-0.3-4.3-0.6-4.3-2.3c0-2.3,3.7-2.5,4.4-2.6c1,0,4.5,0.2,4.7,2.4l0.1,0.6h3.8l0-0.6
	c-0.2-3.7-4.5-5.5-8.6-5.4c-4.1,0-8.3,2-8.3,5.7c0,4.6,5.8,5.1,8.3,5.3c0.3,0,0.5,0.1,0.8,0.1c2.8,0.3,4.6,0.6,4.6,2.5
	c-0.1,2.3-3.1,2.7-4.9,2.8c-1.7,0-5.1-0.6-5.2-2.7l0-0.6h-3.9l0,0.6c0.1,2.8,2.9,5.7,8.8,5.7c0.1,0,0.2,0,0.4,0
	c6.5-0.1,8.8-3.1,8.8-5.8C361.4,184.7,356.2,184.2,352.7,183.9 M396.3,186.8h9.3v-3.1h-9.3v-4.5h9.7v-3.1h-13.7v18.8h14v-3.2h-10
	V186.8z M457.8,184.5h-11.2v3h7.3c-0.6,2.9-3.1,4.5-6.9,4.5c-4.3,0-7.2-2.6-7.2-6.5c0-3.8,3-6.5,7.2-6.5c3.3,0,5.3,0.9,6.1,2.9
	l0.2,0.4h4l-0.3-0.8c-1.4-4.2-6.1-5.7-10-5.7c-6.5,0-11.2,4-11.2,9.6c0,5.6,4.7,9.7,11.2,9.7c4.7,0,8.3-1.9,10-5.3
	c0.7-1.4,1-3,0.9-4.8L457.8,184.5z M501.8,188.3c0,2.3-1.8,3.7-4.8,3.7c-3,0-4.8-1.4-4.8-3.7v-12.2h-4v12.2c0,4.1,3.5,6.8,8.8,6.8
	c5.2,0,8.7-2.7,8.7-6.8v-12.2h-3.9V188.3z M554.8,182.4c0-3.6-3.3-6.3-7.9-6.3h-9.1v18.8h4v-6.4h4.4l5.8,6.4h3.7v-1.1l-5.4-5.9
	C553.1,187,554.8,184.9,554.8,182.4 M546.9,185.5h-5.1v-6.3h5.1c2.4,0,4,1.3,4,3.1C550.8,184.2,549.2,185.5,546.9,185.5
	 M596.1,175.8c-6.6,0-11.4,4.1-11.4,9.7c0,5.7,4.7,9.7,11.3,9.7c6.7,0,11.4-4,11.4-9.7C607.4,179.9,602.6,175.8,596.1,175.8
	 M596,192c-4.3,0-7.3-2.7-7.3-6.5c0-3.9,3-6.5,7.4-6.5s7.4,2.7,7.4,6.5C603.4,189.4,600.4,192,596,192 M646.3,183.9l-0.6-0.1
	c-3-0.3-4.3-0.6-4.3-2.3c0-2.3,3.7-2.5,4.4-2.6c1,0,4.5,0.2,4.7,2.4l0.1,0.6h3.8l0-0.6c-0.2-3.7-4.5-5.5-8.6-5.4
	c-4.1,0-8.3,2-8.3,5.7c0,4.6,5.8,5.1,8.3,5.3c0.3,0,0.5,0.1,0.8,0.1c2.8,0.3,4.6,0.6,4.6,2.5c-0.1,2.3-3.1,2.7-4.9,2.8
	c-1.7,0-5.1-0.6-5.2-2.7l0-0.6h-3.9l0,0.6c0.1,2.8,2.9,5.7,8.8,5.7c0.1,0,0.2,0,0.4,0c6.5-0.1,8.8-3.1,8.8-5.8
	C655,184.7,649.7,184.2,646.3,183.9"/>
</svg>
